<svg xmlns="http://www.w3.org/2000/svg" width="13" height="17" viewBox="0 0 13 17"><defs><style>.cls-1{fill:none;}.cls-2{fill:#e5d9f4;}.cls-3{fill:#d35fbc;}.cls-4{fill:#7137c8;}</style></defs><title>IntermediateLanguage</title><g id="Layer_2" data-name="Layer 2"><g id="svg2"><rect id="rect7044" class="cls-1" width="13" height="17"/><path id="rect7046" class="cls-2" d="M12,4H2A.94.94,0,0,0,1,5v6a.94.94,0,0,0,1,1H12a.94.94,0,0,0,1-1V5A1,1,0,0,0,12,4Z"/><path id="path7048" class="cls-3" d="M11.8,4c.7,0,1.2.4,1.2,1v6a1,1,0,0,1-1.1,1H7V4Z"/><path id="path7050" class="cls-4" d="M2,4A1,1,0,0,0,1,5v6a1,1,0,0,0,1.1,1H7V4Z"/></g></g></svg>