<svg xmlns="http://www.w3.org/2000/svg" width="12" height="10" viewBox="0 0 12 10"><defs><style>.cls-1{fill:#8f7bae;}.cls-2{fill:#e7e1ef;}.cls-3{fill:#fff;}</style></defs><title>TranslationStatusTextAsked</title><g id="Layer_2" data-name="Layer 2"><g id="svg2"><path id="rect7122" class="cls-1" d="M1,0H11a1,1,0,0,1,1,1.1V8.9A1,1,0,0,1,11,10H1A1,1,0,0,1,0,8.9V1.1A1,1,0,0,1,1,0Z"/><path id="rect7124" class="cls-2" d="M1.8,1h8.3a.82.82,0,0,1,.8.9V8.1a.88.88,0,0,1-.8.9H1.8A.82.82,0,0,1,1,8.1V1.9A.82.82,0,0,1,1.8,1Z"/><path class="cls-3" d="M7.14,3.71a1.79,1.79,0,0,0-.45-.27,1.19,1.19,0,0,0-.44-.09.73.73,0,0,0-.43.13.39.39,0,0,0-.17.33A.32.32,0,0,0,5.74,4,.78.78,0,0,0,6,4.2a2.09,2.09,0,0,0,.3.11l.34.11a2.15,2.15,0,0,1,1,.6A1.45,1.45,0,0,1,7.9,6a2,2,0,0,1-.14.74,1.41,1.41,0,0,1-.4.56,1.83,1.83,0,0,1-.64.37,2.83,2.83,0,0,1-.86.13A3.17,3.17,0,0,1,4,7.19l.59-1.11a2.18,2.18,0,0,0,.61.41,1.43,1.43,0,0,0,.59.13.71.71,0,0,0,.5-.15.47.47,0,0,0,.17-.35.65.65,0,0,0,0-.21.67.67,0,0,0-.14-.16A1.26,1.26,0,0,0,6,5.62l-.38-.14-.52-.19A1.74,1.74,0,0,1,4.66,5a1.23,1.23,0,0,1-.32-.42A1.54,1.54,0,0,1,4.22,4a1.8,1.8,0,0,1,.13-.71,1.46,1.46,0,0,1,.36-.55,1.65,1.65,0,0,1,.57-.35A2.28,2.28,0,0,1,6,2.21a3.36,3.36,0,0,1,.82.11,3.41,3.41,0,0,1,.82.32Z"/></g></g></svg>