<svg xmlns="http://www.w3.org/2000/svg" width="12" height="9" viewBox="0 0 12 9"><defs><style>.cls-1{fill:#8f7bae;}.cls-2{fill:#fff;}</style></defs><title>TranslationStatusTextOn</title><g id="Layer_2" data-name="Layer 2"><g id="svg2"><path id="rect7128" class="cls-1" d="M1,0H11a.94.94,0,0,1,1,1V8a.94.94,0,0,1-1,1H1A.94.94,0,0,1,0,8V1A1,1,0,0,1,1,0Z"/><path class="cls-2" d="M7.19,3.31A1.79,1.79,0,0,0,6.74,3,1.19,1.19,0,0,0,6.3,3a.67.67,0,0,0-.43.13.39.39,0,0,0-.17.32.32.32,0,0,0,.09.24A.61.61,0,0,0,6,3.79a1.34,1.34,0,0,0,.3.12l.34.1a2.15,2.15,0,0,1,1,.6,1.48,1.48,0,0,1,.31,1,1.9,1.9,0,0,1-.14.73,1.51,1.51,0,0,1-.4.57,1.81,1.81,0,0,1-.64.36,2.55,2.55,0,0,1-.86.13,3.23,3.23,0,0,1-1.86-.59l.59-1.11a2.42,2.42,0,0,0,.61.41,1.43,1.43,0,0,0,.59.13.67.67,0,0,0,.5-.16.45.45,0,0,0,.17-.34.65.65,0,0,0,0-.21.52.52,0,0,0-.14-.16,1.26,1.26,0,0,0-.26-.14l-.38-.14-.52-.19a1.48,1.48,0,0,1-.46-.26,1.38,1.38,0,0,1-.32-.43,1.49,1.49,0,0,1-.12-.64,1.85,1.85,0,0,1,.13-.72,1.42,1.42,0,0,1,.36-.54,1.85,1.85,0,0,1,.57-.36,2.29,2.29,0,0,1,.76-.12,2.94,2.94,0,0,1,.82.11,3.41,3.41,0,0,1,.82.32Z"/></g></g></svg>