<svg xmlns="http://www.w3.org/2000/svg" width="12" height="9" viewBox="0 0 12 9"><defs><style>.cls-1{fill:#e7e1ef;}.cls-2{fill:#fff;}</style></defs><title>TranslationStatusTextOff</title><g id="Layer_2" data-name="Layer 2"><g id="svg2"><path id="rect7110" class="cls-1" d="M1,0H11a.94.94,0,0,1,1,1V8a.94.94,0,0,1-1,1H1A.94.94,0,0,1,0,8V1A1.08,1.08,0,0,1,1,0Z"/><path class="cls-2" d="M7.19,3.31A1.79,1.79,0,0,0,6.74,3,1.14,1.14,0,0,0,6.31,3a.7.7,0,0,0-.44.13.38.38,0,0,0-.16.32.32.32,0,0,0,.08.24A.71.71,0,0,0,6,3.79a1.25,1.25,0,0,0,.31.12l.34.1a2.11,2.11,0,0,1,1,.6,1.48,1.48,0,0,1,.31,1,1.9,1.9,0,0,1-.13.73,1.64,1.64,0,0,1-.4.57,1.86,1.86,0,0,1-.65.36,2.55,2.55,0,0,1-.86.13,3.23,3.23,0,0,1-1.86-.59l.59-1.11a2.61,2.61,0,0,0,.61.41,1.44,1.44,0,0,0,.6.13.68.68,0,0,0,.5-.16.44.44,0,0,0,.16-.34.46.46,0,0,0,0-.21.52.52,0,0,0-.14-.16,1,1,0,0,0-.26-.14l-.38-.14-.52-.19a1.43,1.43,0,0,1-.45-.26,1.41,1.41,0,0,1-.33-.43,1.49,1.49,0,0,1-.12-.64,1.85,1.85,0,0,1,.13-.72,1.7,1.7,0,0,1,.36-.54,1.78,1.78,0,0,1,.58-.36,2.29,2.29,0,0,1,.76-.12,3,3,0,0,1,.82.11,3.76,3.76,0,0,1,.82.32Z"/></g></g></svg>