<svg xmlns="http://www.w3.org/2000/svg" width="13" height="13" viewBox="0 0 13 13"><defs><style>.cls-1{fill:#c83737;}.cls-2{fill:#f9f9f9;}</style></defs><title>ProjectMessageStatusProblem</title><g id="Layer_2" data-name="Layer 2"><g id="svg2"><path id="path7346" class="cls-1" d="M13,6.5a6.5,6.5,0,0,1-13,0H0a6.5,6.5,0,0,1,13,0Z"/><path class="cls-2" d="M4.2,9.8V3.36H6.29a7.57,7.57,0,0,1,1.55.1,1.69,1.69,0,0,1,.93.63,2,2,0,0,1,.37,1.25,2.1,2.1,0,0,1-.22,1A1.76,1.76,0,0,1,8.37,7a1.88,1.88,0,0,1-.67.31,7.43,7.43,0,0,1-1.35.09H5.5V9.8ZM5.5,4.45V6.28h.71a3.36,3.36,0,0,0,1-.1.86.86,0,0,0,.41-.32.87.87,0,0,0,.15-.5.83.83,0,0,0-.21-.58.9.9,0,0,0-.52-.29,6.25,6.25,0,0,0-.94,0Z"/></g></g></svg>