<svg xmlns="http://www.w3.org/2000/svg" width="44.07" height="38.11" viewBox="0 0 44.07 38.11"><defs><style>.cls-1{fill:#76bed0;}.cls-2{fill:#c8e7ec;}.cls-3{fill:#fff;}.cls-4{fill:#d35f5f;}.cls-5{fill:none;}</style></defs><title>CancelledOn</title><g id="Layer_2" data-name="Layer 2"><g id="svg2"><path id="path4938" class="cls-1" d="M30,0c5.4.3,9.7,3.4,12.4,8a14.68,14.68,0,0,1,1.7,6.9,15.08,15.08,0,0,1-1.7,7c0,.1-.1.1-.1.2a16,16,0,0,1-7.8,7c-.1,0-.1.1-.2.1l-.9.3a18.58,18.58,0,0,1-3.4.6h-1.6c-6.3-.3-10.9-4.7-13.6-10.4-1-2.2-2-3.5-5.4-3.6v-2c3.5-.2,4.6-1.6,5.4-3.6C17.17,4.6,22.07.4,28.37.1A8.08,8.08,0,0,1,30,0Z"/><path id="path4940" class="cls-2" d="M29.07,2.3A12.7,12.7,0,1,1,17,18.8c-.1-.2-.1-.4-.2-.6s-.1-.3-.1-.4c-.5-2-2.6-2.5-2.6-2.8s1.9-.8,2.6-3c.1-.2.1-.4.2-.6s.1-.2.1-.3.1-.1.1-.2a12.65,12.65,0,0,1,12-8.6Z"/><path id="path4942" class="cls-3" d="M29,4.2a10.8,10.8,0,1,1,0,21.6,10.9,10.9,0,0,1-10.3-7.5.9.9,0,0,1-.1-.5c0-.1-.1-.2-.1-.3-.5-1.7-2.2-2.1-2.2-2.4a4.88,4.88,0,0,0,2.2-2.5c0-.2.1-.3.1-.5s0-.1.1-.2a.1.1,0,0,1,.1-.1A10.53,10.53,0,0,1,29,4.2Z"/><path id="rect5007" class="cls-4" d="M26,10.7h6a1.54,1.54,0,0,1,1.5,1.5v6A1.54,1.54,0,0,1,32,19.7H26a1.54,1.54,0,0,1-1.5-1.5v-6A1.54,1.54,0,0,1,26,10.7Z"/><rect class="cls-5" y="0.11" width="44" height="38"/></g></g></svg>