<svg xmlns="http://www.w3.org/2000/svg" width="44" height="38" viewBox="0 0 44 38"><defs><style>.cls-1{fill:#76bed0;}.cls-2{fill:#c8e7ec;}.cls-3{fill:#fff;}.cls-4{fill:#1b8787;}.cls-5{fill:none;}</style></defs><title>CompletedAfterReopenOn</title><g id="Layer_2" data-name="Layer 2"><g id="svg2"><path id="path4983" class="cls-1" d="M29.38,0c5.4.3,9.7,3.4,12.4,8a14.68,14.68,0,0,1,1.7,6.9,15.08,15.08,0,0,1-1.7,7c0,.1-.1.1-.1.2a16,16,0,0,1-7.8,7h-.2l-.9.3a18.57,18.57,0,0,1-3.4.6h-1.6c-6.3-.3-10.9-4.7-13.6-10.4-1-2.2-2-3.5-5.4-3.6V14c3.5-.2,4.6-1.6,5.4-3.6C16.58,4.5,21.48.3,27.78,0Z"/><path id="path4985" class="cls-2" d="M28.58,2.3a12.7,12.7,0,1,1-12.1,16.5c-.1-.2-.1-.4-.2-.6s-.1-.3-.1-.4c-.5-2-2.6-2.5-2.6-2.8s1.9-.8,2.6-3c.1-.2.1-.4.2-.6s.1-.2.1-.3.1-.1.1-.2a12.56,12.56,0,0,1,12-8.6Z"/><path id="path4987" class="cls-3" d="M28.38,4.2a10.8,10.8,0,0,1,0,21.6,10.9,10.9,0,0,1-10.3-7.5.9.9,0,0,1-.1-.5c0-.1-.1-.2-.1-.3-.5-1.7-2.2-2.1-2.2-2.4a4.88,4.88,0,0,0,2.2-2.5c0-.2.1-.3.1-.5s0-.1.1-.2a.1.1,0,0,1,.1-.1,10.71,10.71,0,0,1,10.2-7.6Z"/><g id="g3990"><g id="g3992"><rect id="rect3994" class="cls-4" x="25.06" y="15.68" width="3.56" height="6.96" transform="translate(-3.17 32.83) rotate(-60)"/><rect id="rect3996" class="cls-4" x="24.34" y="14.4" width="12.26" height="3.56" transform="translate(1.22 34.47) rotate(-60)"/><rect id="rect3998" class="cls-4" x="24.34" y="14.4" width="12.26" height="3.56" transform="translate(1.22 34.47) rotate(-60)"/></g><path id="path4000" class="cls-4" d="M28.58,11.7l-2.87,1.72-2.87,1.72V8.54l2.87,1.72Z"/></g><rect class="cls-5" width="44" height="38"/></g></g></svg>