<svg xmlns="http://www.w3.org/2000/svg" width="44" height="38" viewBox="0 0 44 38"><defs><style>.cls-1{fill:#76bed0;}.cls-2{fill:#c8e7ec;}.cls-3{fill:#fff;}.cls-4{fill:#1b8787;}.cls-5{fill:none;}</style></defs><title>CompletedOn</title><g id="Layer_2" data-name="Layer 2"><g id="svg2"><path id="path3966" class="cls-1" d="M29.81,0c5.4.3,9.7,3.4,12.4,8a14.68,14.68,0,0,1,1.7,6.9,15.08,15.08,0,0,1-1.7,7c0,.1-.1.1-.1.2a16,16,0,0,1-7.8,7c-.1,0-.1.1-.2.1l-.9.3a18.58,18.58,0,0,1-3.4.6h-1.6c-6.3-.3-10.9-4.7-13.6-10.4-1-2.2-2-3.5-5.4-3.6v-2c3.5-.2,4.6-1.6,5.4-3.6C17,4.6,21.91.4,28.21.1a8.6,8.6,0,0,1,1.6-.1Z"/><path id="path3968" class="cls-2" d="M29,2.3a12.7,12.7,0,1,1-12.1,16.5c-.1-.2-.1-.4-.2-.6s-.1-.3-.1-.4c-.5-2-2.6-2.5-2.6-2.8s1.9-.8,2.6-3c.1-.2.1-.4.2-.6s.1-.2.1-.3.1-.1.1-.2A12.47,12.47,0,0,1,29,2.3Z"/><path id="path3970" class="cls-3" d="M28.81,4.2a10.8,10.8,0,1,1,0,21.6,10.9,10.9,0,0,1-10.3-7.5.9.9,0,0,1-.1-.5c0-.1-.1-.2-.1-.3-.5-1.7-2.2-2.1-2.2-2.4a4.88,4.88,0,0,0,2.2-2.5c0-.2.1-.3.1-.5s0-.1.1-.2a.1.1,0,0,1,.1-.1,10.62,10.62,0,0,1,10.2-7.6Z"/><g id="g4989"><g id="g4991"><g id="g4993"><rect id="rect4995" class="cls-4" x="24.81" y="14.44" width="3.31" height="6.48" transform="translate(-2.08 31.76) rotate(-60)"/><rect id="rect4997" class="cls-4" x="24.15" y="13.35" width="11.42" height="3.31" transform="translate(1.94 33.36) rotate(-60)"/><rect id="rect4999" class="cls-4" x="24.15" y="13.35" width="11.42" height="3.31" transform="translate(1.94 33.36) rotate(-60)"/></g><rect id="rect5001" class="cls-4" x="24.81" y="14.44" width="3.31" height="6.48" transform="translate(-2.08 31.76) rotate(-60)"/><rect id="rect5003" class="cls-4" x="24.15" y="13.35" width="11.42" height="3.31" transform="translate(1.94 33.36) rotate(-60)"/><rect id="rect5005" class="cls-4" x="24.15" y="13.35" width="11.42" height="3.31" transform="translate(1.94 33.36) rotate(-60)"/></g></g><rect class="cls-5" width="44" height="38"/></g></g></svg>