<svg xmlns="http://www.w3.org/2000/svg" width="44" height="38" viewBox="0 0 44 38"><defs><style>.cls-1{fill:#76bed0;}.cls-2{fill:#fff;}.cls-3{fill:none;}.cls-4{fill:#1b8787;}</style></defs><title>Completed</title><g id="Layer_2" data-name="Layer 2"><g id="svg2"><path id="path9415" class="cls-1" d="M33.7,4.1A11.1,11.1,0,0,1,42.8,10,11,11,0,0,1,44,15.1a12.33,12.33,0,0,1-1.2,5.1.1.1,0,0,1-.1.1A11.72,11.72,0,0,1,37,25.4a.1.1,0,0,0-.1.1c-.2.1-.4.1-.6.2a10.05,10.05,0,0,1-2.5.4H32.6c-4.7-.2-8-3.4-10-7.7-.8-1.6-1.5-2.3-4-2.4V14c2.6-.1,3.3-.9,4-2.3,1.8-4.3,5.3-7.4,10-7.7a4.49,4.49,0,0,0,1.1.1Z"/><path id="path9417" class="cls-2" d="M33.1,6a9.1,9.1,0,0,1,0,18.2,9,9,0,0,1-8.6-6.3c0-.1-.1-.3-.1-.4s-.1-.2-.1-.3c-.4-1.4-1.8-1.8-1.8-2s1.4-.5,1.8-2.1c0-.1.1-.3.1-.4s0-.1.1-.2a.1.1,0,0,1,.1-.1A8.79,8.79,0,0,1,33.1,6Z"/><rect class="cls-3" width="44" height="38"/><g id="g8870"><rect id="rect8872" class="cls-4" x="29.05" y="14.63" width="2.93" height="5.74" transform="translate(0.1 35.17) rotate(-60)"/><rect id="rect8874" class="cls-4" x="28.56" y="13.63" width="10.1" height="2.93" transform="translate(3.73 36.66) rotate(-60)"/><rect id="rect8876" class="cls-4" x="28.56" y="13.63" width="10.1" height="2.93" transform="translate(3.73 36.66) rotate(-60)"/></g></g></g></svg>