<svg xmlns="http://www.w3.org/2000/svg" width="34.7" height="38" viewBox="0 0 34.7 38"><defs><style>.cls-1{fill:#76bed0;}.cls-2{fill:#fffefa;}.cls-3{fill:#fff;}.cls-4{fill:none;}</style></defs><title>EmailDetails</title><g id="Layer_2" data-name="Layer 2"><g id="svg2"><path id="path8622" class="cls-1" d="M21.9,32.75c-.1-2-2.6-4.6-3.2-5.4-1.4-2.1-1.3-2.1-2.7,0-.6.9-3.1,3.4-3.2,5.4v.5a4.88,4.88,0,0,0,3.2,4.3,4.16,4.16,0,0,0,2.7,0,4.88,4.88,0,0,0,3.2-4.3v-.5Z"/><path id="path8624" class="cls-2" d="M19.3,33.35a1.9,1.9,0,0,1-3.8,0,1.84,1.84,0,0,1,1.9-1.9A2,2,0,0,1,19.3,33.35Z"/><path id="path9433" class="cls-1" d="M17.1,6.15A9.27,9.27,0,0,0,9,12.35C8.5,13.55,7.9,14,5.8,14v1.9c2,0,2.6.4,3.2,1.8,1.6,3.5,4.3,6.1,8.1,6.3h1c3.8-.2,6.5-2.8,8.1-6.3.7-1.4,1.3-1.8,3.6-1.7V14c-2.4,0-3-.5-3.6-1.7-1.5-3.5-4.3-6.1-8.1-6.2Z"/><g id="g9435"><path id="path9437" class="cls-3" d="M13.72,12.15V13l4.06,1.77,3.93-1.51V12.21h-8v-.07Z"/><path id="path9439" class="cls-3" d="M13.72,14.18v4h8V14.44l-3.93,2Z"/></g><rect class="cls-4" width="34.7" height="38"/></g></g></svg>