<svg xmlns="http://www.w3.org/2000/svg" width="44" height="38" viewBox="0 0 44 38"><defs><style>.cls-1{fill:#76bed0;}.cls-2{fill:#fff;}.cls-3{fill:#84bb2c;}.cls-4{fill:none;}</style></defs><title>InProgressProofreading</title><g id="Layer_2" data-name="Layer 2"><g id="svg2"><path id="path4743" class="cls-1" d="M21.5,4c-4.7.2-8.1,3.4-9.9,7.7-.7,1.7-1.6,2.5-5.5,2.3v2c3.8-.1,4.6.4,5.5,2.3,2,4.2,5.3,7.4,9.9,7.7h1.2c4.7-.2,8-3.4,10-7.7.9-1.9,1.7-2.5,5.5-2.3V14c-3.8.1-4.7-.6-5.5-2.3-1.8-4.3-5.3-7.4-10-7.7Z"/><path id="path4745" class="cls-2" d="M22.1,5.9A9.08,9.08,0,0,0,13.5,12c-.1.3-.3.6-.4.9-.5,1.6-1.8,1.9-1.8,2.1s1.4.6,1.8,2c.1.2.1.4.2.6h0A9.16,9.16,0,0,0,22,24a9.4,9.4,0,0,0,8.9-7.1c.4-1.4,1.8-1.8,1.8-2s-1.4-.5-1.9-2.1a9,9,0,0,0-8.7-6.9Z"/><path id="path4747" class="cls-3" d="M28,15.1l-4.5,2.6L19,20.3V9.9l4.5,2.6Z"/><rect class="cls-4" width="44" height="38"/></g></g></svg>