<svg xmlns="http://www.w3.org/2000/svg" width="43.95" height="38" viewBox="0 0 43.95 38"><defs><style>.cls-1{fill:#76bed0;}.cls-2{fill:#c8e7ec;}.cls-3{fill:#fff;}.cls-4{fill:#8f7bae;}.cls-5{fill:none;}</style></defs><title>PendingOn</title><g id="Layer_2" data-name="Layer 2"><g id="svg2"><path id="path4892" class="cls-1" d="M21,.16c-6.3.3-11.1,4.6-13.5,10.4-1,2.4-2.2,3.7-7.5,3.5v2c5.2-.2,6.2.9,7.5,3.6,2.7,5.8,7.2,10.1,13.5,10.4h1.6c6.3-.3,10.9-4.7,13.6-10.4,1.2-2.6,2.3-3.8,7.5-3.6v-2c-5.2.2-6.5-1.2-7.5-3.6C33.81,4.56,29,.36,22.61.06A8.6,8.6,0,0,1,21,.16Z"/><path id="path4894" class="cls-2" d="M21.81,2.36a12.76,12.76,0,0,0-12,8.5,5,5,0,0,0-.5,1.3c-.6,2.2-3,2.7-3,3s2.4.9,3,2.8a6.9,6.9,0,0,0,.3.8v.1h0a12.64,12.64,0,0,0,12.2,8.9,12.94,12.94,0,0,0,12.4-9.9c.5-2,3-2.5,3-2.8s-2.4-.8-3-3a13.17,13.17,0,0,0-12.4-9.7Z"/><path id="path4896" class="cls-3" d="M21.81,4.26a10.84,10.84,0,0,0-10.2,7.2c-.1.4-.3.7-.4,1.1-.6,1.9-2.6,2.3-2.6,2.5s2.1.8,2.5,2.4a4.88,4.88,0,0,0,.3.7v.1h0a10.9,10.9,0,0,0,10.4,7.6,11,11,0,0,0,10.6-8.4c.5-1.7,2.6-2.2,2.6-2.4s-2-.6-2.6-2.6a11.25,11.25,0,0,0-10.6-8.2Z"/><g id="g4904"><rect id="rect4831" class="cls-4" x="16.23" y="10" width="4.64" height="10.3"/><rect id="rect4833" class="cls-4" x="22.67" y="10" width="4.64" height="10.3"/></g><rect class="cls-5" width="43.95" height="38"/></g></g></svg>