<svg xmlns="http://www.w3.org/2000/svg" width="34.7" height="38" viewBox="0 0 34.7 38"><defs><style>.cls-1{fill:#76bed0;}.cls-2{fill:#c8e7ec;}.cls-3{fill:#fff;}.cls-4{fill:#6f8a91;}.cls-5{fill:none;}</style></defs><title>QuoteOn</title><g id="Layer_2" data-name="Layer 2"><g id="svg2"><path id="path4975" class="cls-1" d="M14.1,0C8.7.3,4.4,3.39,1.7,8A14.59,14.59,0,0,0,0,14.85a15,15,0,0,0,1.7,7c0,.1.1.1.1.2a16,16,0,0,0,7.8,7c.1,0,.1.1.2.1l.9.3a18.63,18.63,0,0,0,3.4.6h1.6c6.3-.3,10.9-4.68,13.6-10.37,1-2.19,2-3.49,5.4-3.59v-2c-3.5-.2-4.6-1.59-5.4-3.59C26.9,4.58,22,.4,15.7.1A8.11,8.11,0,0,0,14.1,0Z"/><path id="path4977" class="cls-2" d="M15,2.29A12.66,12.66,0,1,0,27.1,18.74c.1-.2.1-.4.2-.6s.1-.3.1-.4c.5-2,2.6-2.49,2.6-2.79s-1.9-.8-2.6-3c-.1-.2-.1-.4-.2-.6s-.1-.2-.1-.3-.1-.1-.1-.2A12.65,12.65,0,0,0,15,2.29Z"/><path id="path4979" class="cls-3" d="M15.1,4.19a10.76,10.76,0,1,0,0,21.53,10.9,10.9,0,0,0,10.3-7.48.9.9,0,0,0,.1-.5c0-.1.1-.2.1-.3.5-1.69,2.2-2.09,2.2-2.39a4.87,4.87,0,0,1-2.2-2.49c0-.2-.1-.3-.1-.5s0-.1-.1-.2a.1.1,0,0,0-.1-.1A10.62,10.62,0,0,0,15.1,4.19Z"/><path id="path4981" class="cls-4" d="M14.4,8.87h0A5.91,5.91,0,0,0,9.2,15,5.91,5.91,0,0,0,14.9,21a5.81,5.81,0,0,0,3.3-1.2l1.5,1.1,1.4-2-1.4-1a6.17,6.17,0,0,0,.8-3.09,5.83,5.83,0,0,0-5.6-6.08A.9.9,0,0,1,14.4,8.87Zm.1,2.79h.3a3.14,3.14,0,0,1,3,3.29,3.63,3.63,0,0,1-.3,1.5c-.7-.5-1.5-1-2.2-1.5l-1.4,2L15.4,18a.14.14,0,0,1,0,.2,1.27,1.27,0,0,1-.6.1A3.22,3.22,0,0,1,11.7,15a3.46,3.46,0,0,1,2.8-3.39Z"/><rect class="cls-5" width="34.7" height="38"/></g></g></svg>