<svg xmlns="http://www.w3.org/2000/svg" width="34.7" height="38" viewBox="0 0 34.7 38"><defs><style>.cls-1{fill:#76bed0;}.cls-2{fill:#fff;}.cls-3{fill:#6f8a91;}.cls-4{fill:none;}</style></defs><title>QuoteOff</title><g id="Layer_2" data-name="Layer 2"><g id="svg2"><path id="path9339" class="cls-1" d="M10.3,4.1A11.1,11.1,0,0,0,1.2,10,10.89,10.89,0,0,0,0,15.06a12.26,12.26,0,0,0,1.2,5.08.1.1,0,0,0,.1.1A11.71,11.71,0,0,0,7,25.33a.1.1,0,0,1,.1.1c.2.1.4.1.6.2a10.08,10.08,0,0,0,2.5.4h1.2c4.7-.2,8-3.39,10-7.67.8-1.59,1.5-2.29,4-2.39V14c-2.6-.1-3.3-.9-4-2.29C19.6,7.39,16.1,4.3,11.4,4a4.5,4.5,0,0,1-1.1.1Z"/><path id="path9341" class="cls-2" d="M10.9,6a9.07,9.07,0,1,0,8.6,11.86c0-.1.1-.3.1-.4s.1-.2.1-.3c.4-1.4,1.8-1.79,1.8-2s-1.4-.5-1.8-2.09c0-.1-.1-.3-.1-.4s0-.1-.1-.2a.1.1,0,0,0-.1-.1A8.79,8.79,0,0,0,10.9,6Z"/><path id="path8445" class="cls-3" d="M10.4,10h0A5,5,0,0,0,6,15.06a5,5,0,0,0,4.8,5.08,4.28,4.28,0,0,0,2.7-1l1.3.9L16,18.35l-1.1-.8A5.5,5.5,0,0,0,15.5,15a4.91,4.91,0,0,0-4.7-5.08.76.76,0,0,1-.4.1Zm.1,2.29h.3A2.66,2.66,0,0,1,13.4,15a2.75,2.75,0,0,1-.3,1.3c-.6-.4-1.2-.9-1.8-1.3l-1.2,1.69,1.3.9c.1.1,0,.1,0,.1-.2,0-.3.1-.5.1A2.75,2.75,0,0,1,8.3,15a2.46,2.46,0,0,1,2.2-2.69Z"/><rect class="cls-4" width="34.7" height="38"/></g></g></svg>