<svg xmlns="http://www.w3.org/2000/svg" width="44" height="38" viewBox="0 0 44 38"><defs><style>.cls-1{fill:#76bed0;}.cls-2{fill:#c8e7ec;}.cls-3{fill:#fff;}.cls-4{fill:#1b8787;}.cls-5{fill:#d35f5f;}.cls-6{fill:none;}</style></defs><title>ReopenedOn</title><g id="Layer_2" data-name="Layer 2"><g id="svg2"><path id="path4967" class="cls-1" d="M21.15.2C14.85.5,10,4.8,7.65,10.6c-1,2.4-2.2,3.7-7.5,3.5v2c5.2-.2,6.2.9,7.5,3.6,2.7,5.8,7.2,10.1,13.5,10.4h1.6c6.3-.3,10.9-4.7,13.6-10.4,1.2-2.6,2.3-3.8,7.5-3.6v-2c-5.2.2-6.5-1.2-7.5-3.6C33.95,4.6,29.15.4,22.75.1A8.6,8.6,0,0,1,21.15.2Z"/><path id="path4969" class="cls-2" d="M21.95,2.4a12.76,12.76,0,0,0-12,8.5,5,5,0,0,0-.5,1.3c-.6,2.2-3,2.7-3,3s2.4.9,3,2.8a6.89,6.89,0,0,0,.3.8v.1h0a12.64,12.64,0,0,0,12.2,8.9,12.94,12.94,0,0,0,12.4-9.9c.5-2,3-2.5,3-2.8s-2.4-.8-3-3a13.17,13.17,0,0,0-12.4-9.7Z"/><path id="path4971" class="cls-3" d="M21.95,4.3a10.84,10.84,0,0,0-10.2,7.2c-.1.4-.3.7-.4,1.1-.6,1.9-2.6,2.3-2.6,2.5s2.1.8,2.5,2.4a4.88,4.88,0,0,0,.3.7v.1h0a10.9,10.9,0,0,0,10.4,7.6,11,11,0,0,0,10.6-8.4c.5-1.7,2.6-2.2,2.6-2.4s-2-.6-2.6-2.6a11.25,11.25,0,0,0-10.6-8.2Z"/><g id="g4793"><g id="g4795"><rect id="rect4797" class="cls-4" x="19.08" y="17.08" width="3.13" height="6.11" transform="translate(-7.11 27.95) rotate(-60)"/><rect id="rect4799" class="cls-4" x="18.56" y="16.02" width="10.77" height="3.13" transform="translate(-3.25 29.53) rotate(-60)"/><rect id="rect4801" class="cls-4" x="18.56" y="16.02" width="10.77" height="3.13" transform="translate(-3.25 29.53) rotate(-60)"/></g><path id="path4803" class="cls-5" d="M23.57,12.54l-3.53,2-3.53,2V8.51l3.53,2Z"/></g><rect class="cls-6" width="44" height="38"/></g></g></svg>