<svg xmlns="http://www.w3.org/2000/svg" width="44" height="38" viewBox="0 0 44 38"><defs><style>.cls-1{fill:#76bed0;}.cls-2{fill:#fff;}.cls-3{fill:#1b8787;}.cls-4{fill:#d35f5f;}.cls-5{fill:none;}</style></defs><title>Reopened</title><g id="Layer_2" data-name="Layer 2"><g id="svg2"><path id="path9409" class="cls-1" d="M21.35,4c-4.7.2-8.1,3.4-9.9,7.7-.7,1.7-1.6,2.5-5.5,2.3v2c3.8-.1,4.6.4,5.5,2.3,2,4.2,5.3,7.4,9.9,7.7h1.2c4.7-.2,8-3.4,10-7.7.9-1.9,1.7-2.5,5.5-2.3V14c-3.8.1-4.7-.6-5.5-2.3-1.8-4.3-5.3-7.4-10-7.7Z"/><path id="path9411" class="cls-2" d="M22,5.9a9.08,9.08,0,0,0-8.6,6.1c-.1.3-.3.6-.4.9-.5,1.6-1.8,1.9-1.8,2.1s1.4.6,1.8,2c.1.2.1.4.2.6h0a9.16,9.16,0,0,0,8.7,6.4,9.4,9.4,0,0,0,8.9-7.1c.4-1.4,1.8-1.8,1.8-2s-1.4-.5-1.9-2.1A9,9,0,0,0,22,5.9Z"/><g id="g8496"><g id="g8498"><rect id="rect8500" class="cls-3" x="19.47" y="16.03" width="2.52" height="4.92" transform="translate(-5.65 27.2) rotate(-60)"/><rect id="rect8502" class="cls-3" x="19.03" y="15.23" width="8.67" height="2.52" transform="translate(-2.6 28.48) rotate(-60)"/><rect id="rect8504" class="cls-3" x="19.03" y="15.23" width="8.67" height="2.52" transform="translate(-2.6 28.48) rotate(-60)"/></g><path id="path8506" class="cls-4" d="M23,12.48,20.17,14.1l-2.84,1.62V9.13l2.84,1.62Z"/></g><rect class="cls-5" width="44" height="38"/></g></g></svg>