<svg xmlns="http://www.w3.org/2000/svg" width="34.7" height="38" viewBox="0 0 34.7 38"><defs><style>.cls-1{fill:#76bed0;}.cls-2{fill:#fff;}.cls-3{fill:#fffefa;}.cls-4{fill:none;}</style></defs><title>SendLateDeliveryDone</title><g id="Layer_2" data-name="Layer 2"><g id="svg2"><path id="path4751" class="cls-1" d="M17,6.07a9.27,9.27,0,0,0-8.1,6.2C8.4,13.47,7.8,14,5.7,14v1.9c2,0,2.6.4,3.2,1.8,1.6,3.5,4.3,6.1,8.1,6.3h1c3.8-.2,6.5-2.8,8.1-6.3.7-1.4,1.3-1.8,3.6-1.7V14c-2.4,0-3-.5-3.6-1.7-1.5-3.5-4.3-6.1-8.1-6.2Z"/><path id="path4870" class="cls-2" d="M23.1,15.07a5.5,5.5,0,1,1-5.5-5.5A5.48,5.48,0,0,1,23.1,15.07Z"/><path id="path4872" class="cls-1" d="M21.6,15.07a3.9,3.9,0,1,1-3.9-3.9A3.9,3.9,0,0,1,21.6,15.07Z"/><rect id="rect4874" class="cls-2" x="16.6" y="12.27" width="1.5" height="2.6"/><rect id="rect4876" class="cls-2" x="16.6" y="14.57" width="3.9" height="1.5"/><path id="path8622" class="cls-1" d="M21.9,32.75c-.1-2-2.6-4.6-3.2-5.4-1.4-2.1-1.3-2.1-2.7,0-.6.9-3.1,3.4-3.2,5.4v.5a4.88,4.88,0,0,0,3.2,4.3,4.16,4.16,0,0,0,2.7,0,4.88,4.88,0,0,0,3.2-4.3v-.5Z"/><path id="path8624" class="cls-3" d="M19.3,33.35a1.9,1.9,0,0,1-3.8,0,1.84,1.84,0,0,1,1.9-1.9A2,2,0,0,1,19.3,33.35Z"/><rect class="cls-4" width="34.7" height="38"/></g></g></svg>