<svg xmlns="http://www.w3.org/2000/svg" width="43.95" height="38.05" viewBox="0 0 43.95 38.05"><defs><style>.cls-1{fill:#76bed0;}.cls-2{fill:#c8e7ec;}.cls-3{fill:#fff;}.cls-4{fill:#63cab7;}.cls-5{fill:none;}</style></defs><title>SetupOn</title><g id="Layer_2" data-name="Layer 2"><g id="svg2"><path id="path4911" class="cls-1" d="M21,.1C14.7.4,9.9,4.7,7.5,10.5,6.5,12.9,5.3,14.2,0,14v2c5.2-.2,6.2.9,7.5,3.6C10.2,25.4,14.7,29.7,21,30h1.6c6.3-.3,10.9-4.7,13.6-10.4,1.2-2.6,2.3-3.8,7.5-3.6V14c-5.2.2-6.5-1.2-7.5-3.6C33.8,4.5,29,.3,22.6,0A9.15,9.15,0,0,1,21,.1Z"/><path id="path4913" class="cls-2" d="M21.8,2.3a12.76,12.76,0,0,0-12,8.5,5,5,0,0,0-.5,1.3c-.6,2.2-3,2.7-3,3s2.4.9,3,2.8a6.89,6.89,0,0,0,.3.8v.1h0a12.64,12.64,0,0,0,12.2,8.9,12.94,12.94,0,0,0,12.4-9.9c.5-2,3-2.5,3-2.8s-2.4-.8-3-3A13.17,13.17,0,0,0,21.8,2.3Z"/><path id="path4915" class="cls-3" d="M21.8,4.2a10.84,10.84,0,0,0-10.2,7.2c-.1.4-.3.7-.4,1.1-.6,1.9-2.6,2.3-2.6,2.5s2.1.8,2.5,2.4a4.88,4.88,0,0,0,.3.7v.1h0a10.9,10.9,0,0,0,10.4,7.6,11,11,0,0,0,10.6-8.4c.5-1.7,2.6-2.2,2.6-2.4s-2-.6-2.6-2.6A11.25,11.25,0,0,0,21.8,4.2Z"/><g id="g4923"><rect id="rect4825" class="cls-4" x="17.13" y="10.1" width="9" height="3"/><rect id="rect4827" class="cls-4" x="17.13" y="14.1" width="9" height="3"/><rect id="rect4829" class="cls-4" x="17.13" y="18.1" width="7" height="3"/></g><rect class="cls-5" y="0.05" width="43.95" height="38"/></g></g></svg>