<svg xmlns="http://www.w3.org/2000/svg" width="13" height="17" viewBox="0 0 13 17"><defs><style>.cls-1{fill:none;}.cls-2{fill:#f5db6b;}.cls-3{fill:#b29107;}.cls-4{fill:#84b1bf;}.cls-5{fill:#fff;}</style></defs><title>OnlineStatusIdle</title><g id="Layer_2" data-name="Layer 2"><g id="svg2"><rect id="rect7365" class="cls-1" width="13" height="17"/><path id="path7367" class="cls-2" d="M12.1,8.6A5.6,5.6,0,1,1,6.5,3,5.59,5.59,0,0,1,12.1,8.6Z"/><polygon id="rect7369" class="cls-3" points="6.7 10.8 6.4 11.8 3.8 10.9 4.1 9.9 6.7 10.8"/><rect id="rect7371" class="cls-3" x="4.1" y="5.9" width="1.2" height="2.1"/><rect id="rect7373" class="cls-3" x="7.6" y="6" width="1.1" height="2.1"/><polygon id="rect7375" class="cls-3" points="6.2 10.7 6.4 11.7 9.1 10.8 8.8 9.8 6.2 10.7"/><path id="path7377" class="cls-4" d="M12.2,12.6A3.5,3.5,0,1,1,8.7,9.1,3.54,3.54,0,0,1,12.2,12.6Z"/><path id="path7379" class="cls-5" d="M11.2,12.6a2.5,2.5,0,1,1-2.5-2.5A2.48,2.48,0,0,1,11.2,12.6Z"/><rect id="rect7381" class="cls-4" x="8.2" y="11.1" width="1" height="2"/><rect id="rect7383" class="cls-4" x="8.2" y="12.1" width="2.5" height="1"/></g></g></svg>