<svg xmlns="http://www.w3.org/2000/svg" width="13" height="17" viewBox="0 0 13 17"><defs><style>.cls-1{fill:none;}.cls-2{fill:#e8bbb9;}</style></defs><title>RatingLow</title><g id="Layer_2" data-name="Layer 2"><g id="svg2"><rect id="rect7419" class="cls-1" width="13" height="17"/><rect id="rect7429" class="cls-1" width="13" height="17"/><g id="g7431"><path id="path7433" class="cls-2" d="M9.13,9.9c-.13.32-.44.32-1.33.64A11.16,11.16,0,0,0,4.55,14c-.13.51-.57,1.08-1,.83-1.21-.76-.76-2.67-.32-3.31A2.79,2.79,0,0,0,4,10.41s-2.23.13-2.48-.32c-1-2,.76-6.68,2-6.87,2.8.19,5.4.51,5.66,1.46A8,8,0,0,1,9.13,9.9Z"/><path id="path7435" class="cls-2" d="M9.77,10.09c1.14-2.61.83-5.4,0-5.91a.33.33,0,0,1,.06-.64c2.29-.13,3.18,6.74-.06,7.25C9.32,10.79,9.45,10.09,9.77,10.09Z"/></g></g></g></svg>