<svg xmlns="http://www.w3.org/2000/svg" width="13" height="17" viewBox="0 0 13 17"><defs><style>.cls-1{fill:none;}.cls-2{fill:#cc6561;}</style></defs><title>RatingLowComments</title><g id="Layer_2" data-name="Layer 2"><g id="svg2"><rect id="rect7399" class="cls-1" width="13" height="17"/><rect id="rect7409" class="cls-1" width="13" height="17"/><g id="g7411"><path id="path7413" class="cls-2" d="M9.05,9.7c-.12.31-.43.31-1.3.62a10.9,10.9,0,0,0-3.17,3.41c-.12.5-.56,1.06-.93.81-1.18-.74-.74-2.61-.31-3.23a2.73,2.73,0,0,0,.74-1.12s-2.17.12-2.42-.31c-1-2,.74-6.52,1.92-6.7,2.73.19,5.28.5,5.52,1.43A7.86,7.86,0,0,1,9.05,9.7Z"/><path id="path7415" class="cls-2" d="M9.73,9.89c1.12-2.55.81-5.28,0-5.77A.32.32,0,0,1,9.8,3.5c2.23-.12,3.1,6.58-.06,7.08C9.24,10.57,9.36,9.89,9.73,9.89Z"/></g></g></g></svg>