<svg xmlns="http://www.w3.org/2000/svg" width="13" height="17" viewBox="0 0 13 17"><defs><style>.cls-1{fill:none;}.cls-2{fill:#47a895;}</style></defs><title>RatingHighComments</title><g id="Layer_2" data-name="Layer 2"><g id="svg2"><rect id="rect7397" class="cls-1" width="13" height="17"/><rect id="rect7401" class="cls-1" width="13" height="17"/><g id="g7403"><path id="path7405" class="cls-2" d="M4.19,7.45c.12-.3.42-.3,1.27-.61A10.63,10.63,0,0,0,8.55,3.51c.12-.48.55-1,.91-.79,1.15.73.73,2.54.3,3.15A2.66,2.66,0,0,0,9,7s2.12-.12,2.36.3c1,1.94-.73,6.36-1.88,6.54-2.67-.18-5.15-.48-5.39-1.39a7.64,7.64,0,0,1,.06-5Z"/><path id="path7407" class="cls-2" d="M3.58,7.33c-1.09,2.48-.79,5.15,0,5.63a.32.32,0,0,1-.06.61c-2.18.12-3-6.42.06-6.91C4,6.66,3.89,7.33,3.58,7.33Z"/></g></g></g></svg>