<svg xmlns="http://www.w3.org/2000/svg" width="13" height="17" viewBox="0 0 13 17"><defs><style>.cls-1{fill:none;}.cls-2{fill:#b1ded5;}</style></defs><title>RatingHigh</title><g id="Layer_2" data-name="Layer 2"><g id="svg2"><rect id="rect7417" class="cls-1" width="13" height="17"/><rect id="rect7421" class="cls-1" width="13" height="17"/><g id="g7423"><path id="path7425" class="cls-2" d="M4.28,7.79c.12-.29.41-.29,1.24-.59A10.35,10.35,0,0,0,8.52,4c.12-.47.53-1,.88-.77,1.12.71.71,2.48.29,3.07A2.59,2.59,0,0,0,9,7.32s2.06-.12,2.3.29c.94,1.89-.71,6.19-1.83,6.37-2.59-.18-5-.47-5.25-1.36a7.46,7.46,0,0,1,.06-4.83Z"/><path id="path7427" class="cls-2" d="M3.63,7.61c-1.06,2.42-.77,5,0,5.48a.31.31,0,0,1-.06.59C1.45,13.8.63,7.44,3.63,7,4.1,7,4,7.61,3.63,7.61Z"/></g></g></g></svg>