<svg xmlns="http://www.w3.org/2000/svg" width="26" height="26" viewBox="0 0 26 26"><defs><style>.cls-1{fill:#fff;}.cls-2{fill:#73bf40;}</style></defs><title>ProjectsButtonReopened</title><g id="Layer_2" data-name="Layer 2"><g id="svg2"><path id="path6561" class="cls-1" d="M24.8,13A11.8,11.8,0,1,1,13,1.3,11.74,11.74,0,0,1,24.8,13Z"/><path id="path6869" class="cls-2" d="M13,0A13,13,0,1,0,26,13,13,13,0,0,0,13,0Zm.3,6.8a6.2,6.2,0,1,1,0,12.4,6,6,0,0,1-4.9-2.4l1.8-1.7a3.79,3.79,0,0,0,3.1,1.7A3.71,3.71,0,0,0,17,13a3.71,3.71,0,0,0-3.7-3.8h-.4a4.18,4.18,0,0,0-2.8,1.7l2.3,2.3H6.3V7.1L8.4,9.2A6.47,6.47,0,0,1,13.3,6.8Z"/></g></g></svg>