<svg xmlns="http://www.w3.org/2000/svg" width="26" height="26" viewBox="0 0 26 26"><defs><style>.cls-1{fill:#fff;}.cls-2{fill:#73bf40;}</style></defs><title>ProjectsButtonAssignment</title><g id="Layer_2" data-name="Layer 2"><g id="svg2"><path id="path6561" class="cls-1" d="M24.75,12.81A11.75,11.75,0,1,1,13,1.07,11.75,11.75,0,0,1,24.75,12.81Z"/><path id="path5018" class="cls-2" d="M13,0A13,13,0,1,0,26,13,13,13,0,0,0,13,0Zm0,6.09a2.66,2.66,0,0,1,2.66,2.66A2.64,2.64,0,0,1,13,11.38a2.61,2.61,0,0,1-2.62-2.62A2.64,2.64,0,0,1,13,6.09Zm-2.25,5.06a3.64,3.64,0,0,0,4.66.13c3.13.11,3.37,2.92,3.63,3.44l0,3.5-1.59,0,0-2.87c-.47-.75-1-.59-1.22-.06l0,4.19a13,13,0,0,1-6.5-.12l0-4.16a.77.77,0,0,0-1.28,0l.06,3L7,18.22l0-3.84c0-.69.48-3.21,3.75-3.22Z"/></g></g></svg>