<svg xmlns="http://www.w3.org/2000/svg" width="26" height="26" viewBox="0 0 26 26"><defs><style>.cls-1{fill:#fff;}.cls-2{fill:#73bf40;}</style></defs><title>ProjectsButtonShipping</title><g id="Layer_2" data-name="Layer 2"><g id="svg2"><path id="path6561" class="cls-1" d="M24.8,13A11.8,11.8,0,1,1,13,1.3,11.74,11.74,0,0,1,24.8,13Z"/><path id="path4589-7" class="cls-2" d="M13,0A13,13,0,1,0,26,13,13,13,0,0,0,13,0Zm5.4,6.2a1.22,1.22,0,0,1,.9.4c1.2,1.2-.4,2.2-3.3,5.2l1.1,7.1-1,1.5-2.4-6.7-3.1,2.9.2,3.1-.7.5L8.8,17.7l-.6-.6L5.7,15.8l.5-.7,3.1.2,2.8-3.1L5.3,9.6,7,8.8l7,1.1C16.3,7.7,17.5,6.3,18.4,6.2Z"/></g></g></svg>