<svg xmlns="http://www.w3.org/2000/svg" width="26" height="26" viewBox="0 0 26 26"><defs><style>.cls-1{fill:#fff;}.cls-2{fill:#73bf40;}</style></defs><title>ProjectsButtonDeadlines</title><g id="Layer_2" data-name="Layer 2"><g id="svg2"><path id="path6561" class="cls-1" d="M24.8,12.6A11.8,11.8,0,1,1,13,.9,11.74,11.74,0,0,1,24.8,12.6Z"/><path id="path6569" class="cls-2" d="M13,0A13,13,0,1,0,26,13,13,13,0,0,0,13,0ZM6,6.9H20v12H6Z"/><path id="rect6881" class="cls-2" d="M7,10.9v7H19v-7Zm4.5.9h0a1.66,1.66,0,0,1,1.2.5,1.61,1.61,0,0,1,.3.9,1,1,0,0,1-.5.8l-.1.1.6.3a1.14,1.14,0,0,1,.3.8,1.46,1.46,0,0,1-.5,1.2,1.85,1.85,0,0,1-1.2.5,1.75,1.75,0,0,1-1.2-.4,2,2,0,0,1-.6-1.1v-.2H10l.9-.1h.2v.2a.52.52,0,0,0,.2.4c.1.1.2.2.3.2s.2,0,.3-.2a.76.76,0,0,0,.2-.5.52.52,0,0,0-.2-.4c-.1-.1-.2-.2-.3-.2a.76.76,0,0,0-.4.1l-.2.1v-.2l.1-.8v-.1h.1c.2,0,.3,0,.4-.1a.37.37,0,0,0,.1-.3c0-.1,0-.2-.1-.2s-.1-.1-.2-.1-.2.1-.3.1-.1.2-.2.4v.2h-.2l-.8-.1H9.7v-.2c.1-.3.1-.6.3-.8a1.2,1.2,0,0,1,.5-.5A1.56,1.56,0,0,1,11.5,11.8Zm3.6,0h1.2v5.1H15V13.6l-.9.6-.2.1V13.2H14a2.51,2.51,0,0,0,.7-.4c.1-.4.3-.6.4-1Z"/></g></g></svg>