<svg xmlns="http://www.w3.org/2000/svg" width="26" height="26" viewBox="0 0 26 26"><defs><style>.cls-1{fill:#fff;}.cls-2{fill:#73bf40;}</style></defs><title>ProjectsButtonDeliveries</title><g id="Layer_2" data-name="Layer 2"><g id="svg2"><path id="path6561" class="cls-1" d="M24.8,13A11.8,11.8,0,1,1,13,1.3,11.74,11.74,0,0,1,24.8,13Z"/><path id="path6909" class="cls-2" d="M13,0A13,13,0,1,0,26,13,13,13,0,0,0,13,0ZM6.2,7.8h8.4v8.9H11.2v-.1A2.36,2.36,0,0,0,9,14.1a2.36,2.36,0,0,0-2.2,2.5v.1H5.9V15.5l.3-.4ZM15,9.4h2.6l1.5,3.2,1.8.8v1.9l.4.2v1.2h-.9a2.22,2.22,0,0,0-2.2-2.2,2.31,2.31,0,0,0-2.3,2.2h-.8L15,9.4Zm.9,1v2.3H18l-1-2.3ZM9,15.2a1.5,1.5,0,1,1-1.5,1.5A1.54,1.54,0,0,1,9,15.2Zm9.1,0a1.5,1.5,0,1,1-1.5,1.5A1.47,1.47,0,0,1,18.1,15.2Z"/></g></g></svg>