<svg xmlns="http://www.w3.org/2000/svg" width="26" height="26" viewBox="0 0 26 26"><defs><style>.cls-1{fill:#fff;}.cls-2{fill:#73bf40;}</style></defs><title>ProjectsButtonFiles</title><g id="Layer_2" data-name="Layer 2"><g id="svg2"><path id="path6553" class="cls-1" d="M13,0A13,13,0,1,0,26,13,13,13,0,0,0,13,0ZM11.5,8.4l.5,1h6.5v2.3H8.6L7.4,17.4h0v-8l.6-1ZM9.4,12.6H19.6l-1.1,4.8H8.3Z"/><path id="path6561" class="cls-1" d="M24.8,12.8A11.8,11.8,0,1,1,13,1.1,11.74,11.74,0,0,1,24.8,12.8Z"/><path id="path6561-2" data-name="path6561" class="cls-1" d="M24.7,12.8A11.8,11.8,0,1,1,12.9,1.1,11.74,11.74,0,0,1,24.7,12.8Z"/><path id="path6867" class="cls-2" d="M13,0A13,13,0,1,0,26,13,13,13,0,0,0,13,0ZM11.5,8.4l.5,1h6.5v2.3H8.6L7.4,17.4h0v-8l.6-1ZM9.4,12.7H19.6l-1.1,4.8H8.3Z"/></g></g></svg>