<svg xmlns="http://www.w3.org/2000/svg" width="26" height="26" viewBox="0 0 26 26"><defs><style>.cls-1{fill:#fff;}.cls-2{fill:#73bf40;}</style></defs><title>ProjectsButtonCreate</title><g id="Layer_2" data-name="Layer 2"><g id="svg2"><path id="path6515" class="cls-1" d="M13.28.84A12.28,12.28,0,1,0,25.55,13.12,12.28,12.28,0,0,0,13.28.84ZM11.65,7.13H14.9V11.5h4.37v3.28H14.9v4.37H11.65V14.77H7.26V11.5h4.4Z"/><path id="path6561" class="cls-1" d="M25,13.12A11.75,11.75,0,1,1,13.28,1.38,11.75,11.75,0,0,1,25,13.12Z"/><path id="path6837" class="cls-2" d="M13,0A13,13,0,1,0,26,13,13,13,0,0,0,13,0ZM11.28,6.66h3.44v4.63h4.63v3.47H14.72v4.63H11.28V14.75H6.63V11.28h4.66Z"/></g></g></svg>