<svg xmlns="http://www.w3.org/2000/svg" width="26" height="26.2" viewBox="0 0 26 26.2"><defs><style>.cls-1{fill:#fff;}.cls-2{fill:#73bf40;}</style></defs><title>ProjectsButtonPricing</title><g id="Layer_2" data-name="Layer 2"><g id="svg2"><path id="path6517" class="cls-1" d="M13,0A13,13,0,1,0,26,13,13,13,0,0,0,13,0ZM11.4,5.7h3V7.3a10.55,10.55,0,0,1,2.4.6l.3.1.1.4a2.77,2.77,0,0,1,.1.9,1.48,1.48,0,0,1-.1.9l-.2.6-.7-.2a10.45,10.45,0,0,0-3.2-.6,2.53,2.53,0,0,0-1.2.2c-.2.1-.2.1-.2.3s0,.2.2.3a10.91,10.91,0,0,0,1.9.8h0a6.66,6.66,0,0,1,2.8,1.6,3.23,3.23,0,0,1,.8,2.1A3.19,3.19,0,0,1,16,18a4.59,4.59,0,0,1-1.6.7v1.8h-3V18.8a7.94,7.94,0,0,1-2.2-.6H8.6l-.1-.6a3.66,3.66,0,0,1,0-1.8l.2-.9.8.4a7.3,7.3,0,0,0,3.1.7,4,4,0,0,0,1.5-.2.46.46,0,0,0,.3-.5c0-.1,0-.2-.2-.3a6.28,6.28,0,0,0-1.8-.8,6,6,0,0,1-2.9-1.7,3.06,3.06,0,0,1-.7-2A3.13,3.13,0,0,1,10.1,8a3.51,3.51,0,0,1,1.4-.6l-.1-1.7Z"/><path id="path6561" class="cls-1" d="M24.7,13A11.8,11.8,0,1,1,12.9,1.3,11.74,11.74,0,0,1,24.7,13Z"/><path id="path6839" class="cls-2" d="M13,.2a13,13,0,1,0,13,13A13,13,0,0,0,13,.2ZM11.4,5.9h3V7.5a10.55,10.55,0,0,1,2.4.6l.3.1.1.4a2.77,2.77,0,0,1,.1.9,1.48,1.48,0,0,1-.1.9L17,11l-.7-.3a10.45,10.45,0,0,0-3.2-.6,2.53,2.53,0,0,0-1.2.2c-.2.1-.2.1-.2.3s0,.2.2.3a10.91,10.91,0,0,0,1.9.8h0a6.66,6.66,0,0,1,2.8,1.6,3.23,3.23,0,0,1,.8,2.1A3.19,3.19,0,0,1,16,18.1a4.59,4.59,0,0,1-1.6.7v1.8h-3V18.9a7.94,7.94,0,0,1-2.2-.6H8.6l-.1-.6a3.66,3.66,0,0,1,0-1.8l.2-.9.8.4a7.3,7.3,0,0,0,3.1.7,2.37,2.37,0,0,0,1.5-.3.46.46,0,0,0,.3-.5c0-.1,0-.2-.2-.3a6.28,6.28,0,0,0-1.8-.8,6,6,0,0,1-2.9-1.7,3.06,3.06,0,0,1-.7-2A3.13,3.13,0,0,1,10.1,8a3.51,3.51,0,0,1,1.4-.6l-.1-1.5Z"/></g></g></svg>