<svg xmlns="http://www.w3.org/2000/svg" width="26" height="26" viewBox="0 0 26 26"><defs><style>.cls-1{fill:#fff;}.cls-2{fill:#73bf40;}</style></defs><title>ProjectsButtonServices</title><g id="Layer_2" data-name="Layer 2"><g id="svg2"><path id="path6561" class="cls-1" d="M24.8,13A11.8,11.8,0,1,1,13,1.3,11.74,11.74,0,0,1,24.8,13Z"/><path class="cls-2" d="M13,0A13,13,0,1,0,26,13,13.17,13.17,0,0,0,13,0Zm4.62,17.64h-10v-10h6.8l-.8.8H8.52v8.3h8.3v-4.5l.8-.8Zm-7-8v2h-1v-2Zm3.8,3.5-2.6.5.5-2.7,4.3-4.2,2.1,2.1Zm5.7-5.7L19,8.54l-2.1-2.1L18,5.34C19,5.14,20.42,6.84,20.12,7.44Z"/></g></g></svg>