<svg xmlns="http://www.w3.org/2000/svg" width="19.89" height="19.89" viewBox="0 0 19.89 19.89"><defs><style>.cls-1{fill:#f2cc53;}.cls-2{fill:#eac353;}</style></defs><title>GoToTwilioChat</title><g id="Layer_2" data-name="Layer 2"><g id="svg2"><path class="cls-1" d="M9.94,0a9.95,9.95,0,1,0,10,9.94A9.94,9.94,0,0,0,9.94,0ZM15,12.73a.64.64,0,0,1-.63.71H10.16L6.92,16.23V13.44H5.41a.7.7,0,0,1-.64-.71V7.16c.08-.4.32-.72.64-.72h9a.7.7,0,0,1,.63.72Z"/><path class="cls-2" d="M7.1,11.55V8.72h-1V8.14H8.8v.58h-1v2.83Z"/><path class="cls-2" d="M10.15,11.55,9.34,8.14H10l.52,2.34.62-2.34H12l.6,2.38.53-2.38h.69L13,11.55h-.73L11.58,9l-.68,2.55Z"/></g></g></svg>